<?xml version="1.0" encoding="UTF-8" standalone="no"?>
<svg
   width="1024"
   height="1024"
   viewBox="0 0 1024 1024"
   version="1.1"
   id="svg27"
   sodipodi:docname="but-remove-shades-.svg"
   inkscape:export-filename="waf.png"
   inkscape:export-xdpi="106.7"
   inkscape:export-ydpi="106.7"
   inkscape:version="1.4.3 (0d15f75042, 2025-12-25)"
   xmlns:inkscape="http://www.inkscape.org/namespaces/inkscape"
   xmlns:sodipodi="http://sodipodi.sourceforge.net/DTD/sodipodi-0.dtd"
   xmlns="http://www.w3.org/2000/svg"
   xmlns:svg="http://www.w3.org/2000/svg">
  <sodipodi:namedview
     id="namedview27"
     pagecolor="#ffffff"
     bordercolor="#000000"
     borderopacity="0.25"
     inkscape:showpageshadow="2"
     inkscape:pageopacity="0.0"
     inkscape:pagecheckerboard="0"
     inkscape:deskcolor="#d1d1d1"
     inkscape:export-bgcolor="#ffffff00"
     inkscape:zoom="0.90917969"
     inkscape:cx="532.89796"
     inkscape:cy="347.01611"
     inkscape:window-width="1261"
     inkscape:window-height="1390"
     inkscape:window-x="0"
     inkscape:window-y="0"
     inkscape:window-maximized="1"
     inkscape:current-layer="svg27" />
  <path
     fill="white"
     d="M410.993 477.66C402.641 463.449 402.523 394.684 402.601 375.964C402.673 358.507 425.211 353.655 438.807 349.042C476.568 336.229 509.582 334.381 548.726 340.837C562.956 343.783 576.969 347.693 590.669 352.541C595.377 354.156 599.834 355.646 604.358 357.828C612.014 361.521 614.905 371.696 615.479 379.661C616.383 392.23 615.127 405.512 614.55 418.114C613.427 434.969 613.093 453.403 609.391 469.758C602.371 500.773 580.926 527.708 553.804 543.952C542.803 550.541 524.297 559.948 511.282 562.297C509.614 562.598 505.451 561.974 503.637 561.484C471.234 552.736 439.727 531.907 422.249 502.848C418.571 496.732 412.069 484.513 410.993 477.66Z"
     id="path2" />
  <defs
     id="defs3">
    <linearGradient
       id="gradient_0"
       gradientUnits="userSpaceOnUse"
       x1="589.20081"
       y1="512.99628"
       x2="473.38596"
       y2="388.51822">
      <stop
         offset="0"
         stop-color="#0A0C4F"
         id="stop2" />
      <stop
         offset="1"
         stop-color="#424C6F"
         id="stop3" />
    </linearGradient>
  </defs>
  <path
     fill="url(#gradient_0)"
     d="M548.726 340.837C562.956 343.783 576.969 347.693 590.669 352.541C595.377 354.156 599.834 355.646 604.358 357.828C612.014 361.521 614.905 371.696 615.479 379.661C616.383 392.23 615.127 405.512 614.55 418.114C613.427 434.969 613.093 453.403 609.391 469.758C602.371 500.773 580.926 527.708 553.804 543.952C542.803 550.541 524.297 559.948 511.282 562.297C509.614 562.598 505.451 561.974 503.637 561.484C471.234 552.736 439.727 531.907 422.249 502.848C418.571 496.732 412.069 484.513 410.993 477.66C411.572 476.671 410.643 474.036 410.308 472.572C413.46 468.971 418.746 466.098 422.08 461.608C425.591 456.88 427.379 451.669 430.949 447.325C432.279 445.707 432.574 445.467 433.884 443.534C435.68 458.837 437.655 470.835 445.432 484.64C458.836 508.434 484.339 524.706 510.297 531.768C537.841 521.352 567.964 502.336 577.875 472.811C586.668 446.614 586.807 411.34 587.374 383.677C570.298 375.189 554.615 372.08 536.473 367.844L536.347 367.347C534.973 366.58 532.67 366.659 530.822 366.428L531.586 365.25C530.999 363.675 530.082 363.415 528.502 362.182C519.443 362.505 507.241 361.871 498.027 361.617C499.956 361.321 502.025 361.18 503.98 361.001L503.84 360.905C510.797 359.925 516.25 360.366 523.008 360.442C527.198 360.49 537.558 361.36 540.232 358.071C543.05 354.604 548.461 349.928 548.486 345.181C547.074 342.763 547.45 343.143 548.726 340.837Z"
     id="path3" />
  <path
     fill="#151A56"
     d="M543.488 544.05L546.33 544.148C547.636 545.353 547.221 544.991 547.525 547.243C544.904 546.65 544.159 546.767 543.488 544.05Z"
     id="path4" />
  <defs
     id="defs5">
    <linearGradient
       id="gradient_1"
       gradientUnits="userSpaceOnUse"
       x1="483.04602"
       y1="411.67349"
       x2="428.73672"
       y2="346.27155">
      <stop
         offset="0"
         stop-color="#404872"
         id="stop4" />
      <stop
         offset="1"
         stop-color="#5C638E"
         id="stop5" />
    </linearGradient>
  </defs>
  <path
     fill="url(#gradient_1)"
     d="M410.993 477.66C402.641 463.449 402.523 394.684 402.601 375.964C402.673 358.507 425.211 353.655 438.807 349.042C476.568 336.229 509.582 334.381 548.726 340.837C547.45 343.143 547.074 342.763 548.486 345.181C548.461 349.928 543.05 354.604 540.232 358.071C537.558 361.36 527.198 360.49 523.008 360.442C516.25 360.366 510.797 359.925 503.84 360.905L503.98 361.001C502.025 361.18 499.956 361.321 498.027 361.617C507.241 361.871 519.443 362.505 528.502 362.182C530.082 363.415 530.999 363.675 531.586 365.25L530.822 366.428C532.67 366.659 534.973 366.58 536.347 367.347L536.473 367.844C527.559 366.919 519.669 365.784 510.654 365.574C489.098 365.074 448.732 373.427 430.864 384.607C430.757 396.997 431.118 409.387 431.946 421.75C432.371 427.727 433.749 438.088 433.884 443.534C432.574 445.467 432.279 445.707 430.949 447.325C427.379 451.669 425.591 456.88 422.08 461.608C418.746 466.098 413.46 468.971 410.308 472.572C410.643 474.036 411.572 476.671 410.993 477.66Z"
     id="path5" />
  <defs
     id="defs7">
    <linearGradient
       id="gradient_2"
       gradientUnits="userSpaceOnUse"
       x1="554.13184"
       y1="491.51929"
       x2="456.88196"
       y2="380.24194">
      <stop
         offset="0"
         stop-color="#0C0F4D"
         id="stop6" />
      <stop
         offset="1"
         stop-color="#50597D"
         id="stop7" />
    </linearGradient>
  </defs>
  <path
     fill="url(#gradient_2)"
     d="M449.05 390.217C487.343 390.805 522.249 404.353 546.727 434.878C554.741 444.872 564.187 462.757 565.843 475.537C563.076 480.534 556.459 488.748 552.669 493.064C549.518 496.516 547.585 498.553 544.077 501.591C540.528 479.478 533.73 462.005 517.903 445.651C498.77 425.881 471.74 415.409 444.376 415.022C443.814 406.859 443.704 398.812 442.986 390.583L449.05 390.217Z"
     id="path7" />
  <defs
     id="defs9">
    <linearGradient
       id="gradient_3"
       gradientUnits="userSpaceOnUse"
       x1="531.65125"
       y1="508.89108"
       x2="449.51163"
       y2="423.61743">
      <stop
         offset="0"
         stop-color="#0D114E"
         id="stop8" />
      <stop
         offset="1"
         stop-color="#40486E"
         id="stop9" />
    </linearGradient>
  </defs>
  <path
     fill="url(#gradient_3)"
     d="M444.853 426.328C490.787 425.462 527.68 457.038 532.799 503.153C533.046 505.375 533.219 507.609 533.41 509.836L527.18 513.263C521.749 516.028 516.141 518.835 510.286 520.574C503.655 485.158 485.934 457.525 446.974 455.404C446.02 445.538 445.181 436.232 444.853 426.328Z"
     id="path9" />
  <defs
     id="defs11">
    <linearGradient
       id="gradient_4"
       gradientUnits="userSpaceOnUse"
       x1="555.38397"
       y1="458.08862"
       x2="518.14459"
       y2="365.63565">
      <stop
         offset="0"
         stop-color="#13184A"
         id="stop10" />
      <stop
         offset="1"
         stop-color="#454D77"
         id="stop11" />
    </linearGradient>
  </defs>
  <path
     fill="url(#gradient_4)"
     d="M495.788 378.79C501.835 378.077 513.29 377.695 519.062 378.447C535.137 378.553 559.781 385.58 574.641 391.969C574.594 412.901 573.602 433.82 571.667 454.663C555.458 421.386 531.006 398.374 495.602 386.257C489.726 384.278 483.732 382.669 477.655 381.44C483.216 380.274 490.084 379.369 495.788 378.79Z"
     id="path11" />
  <path
     fill="#464B75"
     d="M495.788 378.79C501.835 378.077 513.29 377.695 519.062 378.447L518.18 378.483C510.243 378.857 504.213 383.539 498.945 379.639C498.029 378.961 496.926 378.91 495.788 378.79Z"
     id="path12" />
  <defs
     id="defs13">
    <linearGradient
       id="gradient_5"
       gradientUnits="userSpaceOnUse"
       x1="375.65991"
       y1="706.92682"
       x2="292.69623"
       y2="613.95709">
      <stop
         offset="0"
         stop-color="#567BED"
         id="stop12" />
      <stop
         offset="1"
         stop-color="#7AA1F6"
         id="stop13" />
    </linearGradient>
  </defs>
  <path
     id="path13"
     d="M 328.51758 590.06836 L 326.66016 590.15234 C 317.05516 591.82334 309.26991 593.35063 308.87891 604.76562 C 308.47691 616.50563 308.68516 628.20422 308.66016 639.94922 L 308.51562 711.44336 C 314.09662 711.41536 320.62119 711.53848 326.11719 711.14648 C 326.21319 706.90848 326.38972 702.45142 326.38672 698.23242 C 340.34672 712.35642 353.78911 717.97777 373.03711 709.13477 C 383.52511 703.46677 390.16383 696.10472 393.54883 684.51172 C 399.98383 662.47372 391.13813 633.89691 367.20312 627.25391 C 358.02813 624.66091 348.20005 625.81203 339.87305 630.45703 C 335.89505 632.71703 332.61172 635.52466 329.13672 638.47266 C 329.09872 632.68666 329.43758 591.62636 328.51758 590.06836 z M 351.24609 647.07422 C 361.60696 647.20615 370.79955 654.58127 372.8418 665.15039 C 375.1768 677.22939 367.29275 688.9193 355.21875 691.2793 C 343.10975 693.6463 331.37811 685.73314 329.03711 673.61914 C 326.69511 661.50414 334.63195 649.78966 346.75195 647.47266 C 348.26233 647.18403 349.76597 647.05537 351.24609 647.07422 z "
     style="fill:#789ff5;fill-opacity:1" />
  <path
     fill="#151A56"
     d="M609.518 602.945L629.664 602.92C627.923 610.737 625.224 618.757 622.735 626.366C613.786 654.504 605.342 683.632 596.172 711.563C590.211 711.658 584.249 711.647 578.289 711.528C575.838 699.055 569.43 680.74 566.024 667.699C563.854 659.39 559.707 642.477 557.053 635.047C551.157 659.07 542.233 687.369 535.251 711.623C529.047 711.745 522.612 711.68 516.388 711.702C508.295 681.596 498.309 651.591 489.728 621.586C487.945 615.351 485.612 609.331 484.169 602.979L504.22 603.055C505.823 607.628 506.878 612.636 508.292 617.297C514.764 638.62 520.055 660.357 526.436 681.694C528.275 672.893 531.34 663.016 533.868 654.275C538.985 637.219 543.936 620.113 548.719 602.961C554.034 602.96 559.349 602.989 564.664 603.048C571.958 629.171 580.876 653.874 587.674 680.787C595.28 654.912 602.094 628.878 609.518 602.945Z"
     id="path15" />
  <path
     id="path16"
     d="M 657.81641 602.96094 L 631.36719 671.77734 C 627.78519 681.11734 619.99998 702.96183 615.58398 711.54883 C 622.58998 711.62483 629.59556 711.60609 636.60156 711.49609 C 639.68656 703.24909 643.09822 693.31927 646.44922 685.32227 C 656.71622 685.24527 666.983 685.22753 677.25 685.26953 L 689.55078 685.45117 C 692.41878 693.44417 696.46053 703.70309 698.89453 711.62109 C 705.88853 711.64809 712.882 711.62392 719.875 711.54492 C 710.347 686.05292 700.51953 660.67216 690.39453 635.41016 C 686.41753 625.31216 681.99991 612.5862 677.75391 603.0332 L 657.81641 602.96094 z M 667.58008 625.9082 C 670.89508 630.9542 681.21753 661.25277 683.76953 668.50977 L 668.48047 668.51172 C 663.03547 668.49572 657.59048 668.54606 652.14648 668.66406 C 657.05348 654.32806 662.19808 640.0742 667.58008 625.9082 z "
     style="fill:#151a56;fill-opacity:1" />
  <path
     id="path18"
     d="M 448.4707 625.69922 C 447.7427 625.68622 447.01511 625.69094 446.28711 625.71094 C 433.80611 626.52094 424.06811 629.87752 415.66211 639.47852 C 400.31711 657.00452 401.81622 688.8528 420.07422 703.8418 C 429.25622 711.3798 441.48487 714.13236 453.17188 712.94336 C 466.87088 711.45336 475.12269 705.38916 483.55469 695.03516 C 480.64969 693.01016 477.72334 691.01578 474.77734 689.05078 L 468.86523 684.89453 C 453.32323 700.38953 431.00383 697.7427 426.54883 674.4707 L 487.98242 674.43164 C 488.10442 667.68064 488.21202 662.86533 486.54102 656.23633 C 481.94702 638.01133 467.3407 625.97522 448.4707 625.69922 z M 446.82812 643.69531 C 457.87912 644.13931 463.08492 649.48188 465.91992 659.79688 C 459.87592 659.56588 452.747 659.74386 446.625 659.75586 C 440.09 659.83786 433.55253 659.79128 427.01953 659.61328 C 430.80153 648.91428 435.53413 644.83831 446.82812 643.69531 z "
     style="fill:#789ff5;fill-opacity:1" />
  <path
     fill="#789FF5"
     d="M154.523 590.711L155.103 590.893C156.134 593.749 155.179 653.139 154.974 660.47C164.125 649.478 173.359 638.556 182.673 627.702L209.68 627.501C199.019 639.15 186.482 653.267 176.359 665.204C187.753 678.118 199.02 691.144 210.159 704.278L216.215 711.421C206.92 711.604 197.267 711.503 187.943 711.535C185.06 708.322 181.464 703.111 178.754 699.551C173.039 692.034 167.237 684.585 161.348 677.205C153.287 688.666 155.414 697.547 155.626 711.489L134.521 711.443L134.584 639.815C134.591 628.361 134.528 616.921 134.712 605.469C134.905 593.455 144.748 591.81 154.523 590.711Z"
     id="path20" />
  <path
     fill="#789FF5"
     d="M273.39 628.012L293.978 627.913L294.035 663.75L294.023 711.367C287.854 711.57 281.409 711.475 275.213 711.47C275.334 706.968 275.109 701.773 275.019 697.22C268.704 706.818 261.004 713.303 249.129 712.994C215.829 712.129 218.001 688.269 217.947 664.803L217.838 628.02L238.825 628.004L238.874 657.433C238.838 665.96 237.287 679.623 243.24 686.253C249.181 692.87 261.36 692.119 267.586 685.92C270.045 683.444 271.76 680.328 272.537 676.927C273.604 672.346 273.343 662.265 273.353 657.213L273.39 628.012Z"
     id="path21" />
  <path
     fill="#151A56"
     d="M731.253 603.036L804.782 602.977C804.956 608.477 804.904 614.416 804.954 619.95L749.798 619.945C749.563 629.664 749.852 640.672 749.895 650.518C765.408 650.362 781.171 650.512 796.703 650.517L796.826 655.375L796.821 666.86C781.104 666.904 765.388 666.839 749.672 666.664C749.475 681.476 749.671 696.731 749.677 711.58L731.448 711.67C731.024 676.37 730.93 638.309 731.253 603.036Z"
     id="path22" />
  <path
     id="path23"
     d="M 867.5 673.87891 C 866.23135 673.87326 864.94277 673.99603 863.65039 674.25391 C 853.26339 676.32691 846.53558 686.44422 848.64258 696.82422 C 850.75058 707.20522 860.89067 713.89786 871.26367 711.75586 C 881.58867 709.62386 888.24448 699.54294 886.14648 689.21094 C 884.31161 680.17044 876.38054 673.91843 867.5 673.87891 z M 867.37305 682.30859 C 872.22021 682.37466 876.51803 685.82881 877.47266 690.77344 C 878.56266 696.42344 874.87456 701.89105 869.22656 702.99805 C 863.55556 704.10905 858.0618 700.40447 856.9668 694.73047 C 855.8718 689.05647 859.59253 683.57119 865.26953 682.49219 C 865.97628 682.35781 866.6806 682.29916 867.37305 682.30859 z "
     style="fill:#151a56;fill-opacity:1" />
  <path
     fill="#151A56"
     d="M832.207 674.627L840.987 674.6C840.964 679.611 841.378 708.78 840.835 711.323L832.127 711.331C832.237 699.097 832.263 686.862 832.207 674.627Z"
     id="path25" />
  <path
     fill="#151A56"
     d="M815.463 698.202C819.205 697.948 822.467 700.724 822.815 704.458C823.163 708.192 820.47 711.523 816.745 711.965C814.251 712.261 811.793 711.181 810.324 709.144C808.854 707.107 808.605 704.434 809.673 702.16C810.741 699.887 812.957 698.372 815.463 698.202Z"
     id="path26" />
  <path
     fill="#151A56"
     d="M835.127 659.679C837.808 658.898 840.622 660.399 841.467 663.061C842.311 665.722 840.878 668.572 838.237 669.479C836.472 670.086 834.517 669.689 833.129 668.441C831.74 667.194 831.137 665.292 831.552 663.473C831.967 661.653 833.335 660.201 835.127 659.679Z"
     id="path27" />
</svg>
